<svg preserveAspectRatio="none" overflow="visible" style="display: block;" width="20" height="20" viewBox="0 0 20 20" fill="none" xmlns="http://www.w3.org/2000/svg">
<g id="question-mark">
<path id="Ellipse 37" d="M17 10C17 13.866 13.866 17 10 17C8.067 17 6.317 16.2165 5.05025 14.9497C3.7835 13.683 3 11.933 3 10C3 6.13401 6.13401 3 10 3C13.866 3 17 6.13401 17 10Z" stroke="#AB4A00" stroke-width="1.25" stroke-linecap="round"/>
<path id="Ellipse 32" d="M10.63 13.625C10.63 13.9702 10.3502 14.25 10.005 14.25C9.65983 14.25 9.38 13.9702 9.38 13.625C9.38 13.2798 9.65983 13 10.005 13C10.3502 13 10.63 13.2798 10.63 13.625Z" fill="#AB4A00" stroke="#AB4A00" stroke-width="1.25"/>
<path id="Vector 249" d="M9.5 5.5L10 10.5L10.5 5.5H9.5Z" stroke="#AB4A00" stroke-width="1.25" stroke-linecap="round" stroke-linejoin="round"/>
</g>
</svg>
